# xmcd
#
# Track frame offsets:
#	150
#	8405
#	22860
#	36080
#	48112
#	59430
#	66692
#	78162
#	88852
#	97485
#	112107
#	123077
#	133852
#	144852
#	161362
#	171040
#	178670
#	197862
#	206515
#	221490
#	233132
#	245080
#	260870
#	272980
#	280125
#	291435
#	300852
#	307950
#	315007
#	324352
#
# Disc length: 4618 seconds
#
# Revision: 0
# Processed by: cddbd v1.5.2PL0 Copyright (c) Steve Scherf et al.
# Submitted via: EasyCDDAExtractor 2011.0.0.0
#
DISCID=ad12081e
DTITLE=Various Artist - Town Hall Party 1958-1961
DYEAR=1995
DGENRE=Country
TTITLE0=Johnny Bond and Fiddlin' Kate - Louisiana Swing
TTITLE1=Bob Luman - Crazy Arms
TTITLE2=James Burton - Cannonball Rag
TTITLE3=Skeets McDonald and The Cimarron Boys - Gotta Travel On
TTITLE4=Larry Collins - Honky Tonk
TTITLE5=Wanda Jackson - I Gotta Know (Incomplete)
TTITLE6=Bob Luman - Ready Teady
TTITLE7=Bob Luman - Shake Rattle And Roll
TTITLE8=Marty Robbins - I Can't Quit
TTITLE9=Marty Robbins - I'll Go On Alone/Pretty Words/Time Goes By
TTITLE10=Gordon Terry - Wild Honey
TTITLE11=Joe and Rose Lee Maphis - Nobody's Business
TTITLE12=Leon McAuliffe and The Cimarron Boys - Oklahoma Hills
TTITLE13=Faron Young - If You Ain't Lovon'
TTITLE14=Faron Young - Along With You
TTITLE15=Faron Young - Going Steady
TTITLE16=Warren Smith - I Can't Stop Loving You
TTITLE17=Martha Carson and Merle Travis - Let The Light Shine On Me
TTITLE18=Skeets McDonald and Merle Travis - The Wall
TTITLE19=Hank Thompson - Wild Side Of Life
TTITLE20=Hank Thompson - Six Pack To Go
TTITLE21=Hank Thompson - Dry Bread
TTITLE22=Marty Robbins - Isle Of Golden Dreams
TTITLE23=Joe Maphis and Larry Collins - Early American
TTITLE24=Lorrie and Larry Collins - Shake Rattle And Roll
TTITLE25=Lorrie and Larry Collins - St Louis Blues (Incomplete)
TTITLE26=Lorrie and Larry Collins - Sugartime
TTITLE27=Quincy Snodgrass and Skeets McDonald - Back Stage Blues
TTITLE28=Tex Carman - Hillbilly Hula
TTITLE29=Town Hall Party Gang - Town Hall Boogie
EXTD=
EXTT0=
EXTT1=
EXTT2=
EXTT3=
EXTT4=
EXTT5=
EXTT6=
EXTT7=
EXTT8=
EXTT9=
EXTT10=
EXTT11=
EXTT12=
EXTT13=
EXTT14=
EXTT15=
EXTT16=
EXTT17=
EXTT18=
EXTT19=
EXTT20=
EXTT21=
EXTT22=
EXTT23=
EXTT24=
EXTT25=
EXTT26=
EXTT27=
EXTT28=
EXTT29=
PLAYORDER=
